<svg xmlns="http://www.w3.org/2000/svg" width="512" height="512" fill="none" viewBox="0 0 256 256">
  <g clip-path="url(#a)">
    <rect width="256" height="256" fill="#9BCC57" rx="128"/>
    <g transform="translate(-32 -32) scale(1.25)">
    <path fill="#FF782E" d="M44.5 67.895 75.45 46.6l30.95 21.295-30.95 21.297L44.5 67.895Z"/>
    <path stroke="#FF782E" stroke-linecap="round" stroke-width="7" d="M97.5 69v16"/>
    <path fill="#083936" d="M89.359 90.984H61.54v94.52h27.818v-94.52Zm-34.332-23.09 20.354 14.448 19.543-15.258-20.357-14.447-19.54 15.257Zm142.675 48.345c.138-16.879-14.247-27.951-30.802-28.356l-32.161 15.258V90.987h-27.817V205.76h27.817v-51.851l24.97 31.597h42.065l-36.909-32.27c16.42-6.616 32.702-20.256 32.837-36.997Zm-62.963 34.972v-44.829c2.985-.271 6.514-.405 8.55-.405 20.761 0 29.039 10.53 29.039 22.145 0 8.236-4.341 17.146-9.907 23.089h-27.682Z"/>
    </g>
  </g>
  <defs>
    <clipPath id="a">
      <path fill="#fff" d="M0 0h256v256H0z"/>
    </clipPath>
  </defs>
</svg>
